<?xml version="1.0" encoding="utf-8"?>
<!-- Generator: Adobe Illustrator 27.8.1, SVG Export Plug-In . SVG Version: 6.00 Build 0)  -->
<svg version="1.1" id="Layer_1" xmlns="http://www.w3.org/2000/svg" xmlns:xlink="http://www.w3.org/1999/xlink" x="0px" y="0px"
	 viewBox="0 0 251.3 65" style="enable-background:new 0 0 251.3 65;" xml:space="preserve">
<style type="text/css">
	.st0{fill:#DCDDDE;}
	.st1{fill:#FFFFFF;}
	.st2{opacity:0.45;fill:#FFFFFF;}
	.st3{font-family:'Poppins-SemiBold';}
	.st4{font-size:11.0417px;}
</style>
<path class="st0" d="M64.1,41.4c0-0.2,0-0.4,0.1-0.6c0-0.3,0-0.5,0.1-0.8c0-0.1,0-0.2,0-0.3c0-0.3,0-0.7,0-1c0,0,0,0,0,0V0.6
	c0,0,0,0,0,0c-0.4,0-6.1,0.1-9.4,5c-2.4,4-1.8,11.6-1.8,11.7c0,0,0,0,0,0l0,1.3c-4.4-2.7-9.7-4.1-15.4-3.4
	C26.8,16.4,18.2,25,17,35.9c-0.1,1-0.2,2-0.2,2.9c0,0,0,0,0,0c0,0,0,0,0,0c0,0.7,0,1.3,0.1,2c0,0.2,0,0.4,0,0.5
	c0.1,0.6,0.1,1.1,0.2,1.7c0,0.3,0.1,0.5,0.2,0.8c0.1,0.3,0.2,0.6,0.2,1c0.1,0.5,0.3,1.1,0.5,1.6c0.1,0.2,0.1,0.3,0.2,0.5
	c3.1,8.5,10.8,14.7,20.1,15.6c13.2,1.2,24.2-7.9,25.7-20.6c0-0.1,0-0.1,0-0.2C64.1,41.5,64.1,41.5,64.1,41.4z M30.8,30.5L30.8,30.5
	c2.3-2.8,5.8-4.5,9.7-4.5c7.2,0,13,6,12.7,13.2c0,0.2,0,0.3,0,0.5c0,0.4-0.1,0.7-0.1,1.1c0,0.1,0,0.2-0.1,0.4c0,0.2-0.1,0.5-0.2,0.7
	c0,0,0,0.1,0,0.1c-0.3,1.2-0.9,2.3-1.6,3.4c-2,3-5.2,5.4-8.5,5.9c-5.5,0.9-10.5-1.7-13.1-5.9c-1.2-1.9-1.9-4.2-1.9-6.6
	c0-0.2,0-0.4,0-0.5c0-0.2,0-0.4,0-0.6c0-0.3,0.1-0.7,0.1-1c0,0,0-0.1,0-0.1C28.4,34.2,29.4,32.2,30.8,30.5
	C30.9,30.5,30.8,30.5,30.8,30.5z"/>
<g>
	<path class="st1" d="M97.8,36.5c-0.5-0.9-1.6-1.4-3.1-1.7c0.8-0.1,1.6-0.3,2.2-0.6c0.6-0.2,1.2-0.5,1.6-0.9
		c0.4-0.4,0.8-0.8,1.1-1.3c0.3-0.5,0.5-1.1,0.6-1.8c0.2-0.8,0.2-1.6,0.1-2.2c-0.1-0.6-0.5-1.1-0.9-1.5c-0.5-0.4-1.2-0.7-2-0.8
		c-0.9-0.2-1.9-0.3-3.2-0.3H76.3L72,45.5h11l1.8-8.3H86c0.6,0,1,0.1,1.2,0.3c0.2,0.2,0.2,0.6,0.1,1.1l-1.5,6.9H97l1.1-5.2
		C98.4,38.6,98.3,37.3,97.8,36.5z M88.8,31.4c-0.1,0.5-0.3,0.9-0.6,1.1c-0.3,0.2-0.7,0.3-1.3,0.3h-1.2l0.6-2.8h1.2
		c0.6,0,1,0.1,1.2,0.3C88.9,30.5,88.9,30.9,88.8,31.4z"/>
	<path class="st1" d="M107.4,25.4l-9.2,20.1h11.3l1.5-4.4h3.1l-0.3,4.4h11.4l-0.7-20.1H107.4z M114.7,36.7h-2.3l2.6-6.8L114.7,36.7z
		"/>
	<path class="st1" d="M154.9,27.8c-0.1-0.6-0.5-1-0.9-1.3c-0.5-0.3-1.1-0.6-2-0.8c-0.8-0.2-1.9-0.2-3.2-0.2h-18l-4.3,20.1h11
		l1.1-5.4h7c2.6,0,4.5-0.4,5.6-1.1c1.2-0.7,2-2,2.4-3.8l1.2-5.5C155,29,155,28.3,154.9,27.8z M143.5,31.4l-0.6,2.7
		c-0.1,0.5-0.3,0.9-0.6,1.1c-0.3,0.2-0.7,0.3-1.2,0.3h-1.4l1.2-5.6h1.5c0.5,0,0.9,0.1,1.1,0.3C143.6,30.5,143.6,30.9,143.5,31.4z"/>
	<polygon class="st1" points="158.2,25.4 153.9,45.5 164.9,45.5 169.2,25.4 	"/>
	<path class="st1" d="M196.8,27.8c-0.1-0.6-0.4-1-0.9-1.3c-0.5-0.3-1.1-0.6-2-0.8c-0.9-0.2-1.9-0.2-3.2-0.2h-10.8h-7.1l-4.3,20.1
		h9.8h8.2c1.3,0,2.4-0.1,3.4-0.3c0.9-0.2,1.7-0.4,2.3-0.8c1.2-0.7,2-2,2.3-3.8l2.3-10.9C196.9,29,196.9,28.3,196.8,27.8z M182.8,30
		h1.2c0,0,0,0,0.1,0c0.6,0,1,0.1,1.1,0.3c0.2,0.2,0.2,0.6,0.1,1.1l-1.7,8c-0.1,0.5-0.3,0.9-0.6,1.1c-0.3,0.2-0.7,0.3-1.3,0.3h-0.2
		h-1L182.8,30z"/>
	<polygon class="st1" points="195.8,45.5 217.6,45.5 218.6,40.9 207.8,40.9 208.7,36.8 218.4,36.8 219.4,32.2 209.6,32.2 210.1,30 
		220.9,30 221.9,25.4 200.1,25.4 	"/>
	<polygon class="st1" points="239,25.4 234.3,38.2 235,25.4 223.6,25.4 225.3,45.5 240.1,45.5 250.4,25.4 	"/>
</g>
<g>
	<path class="st1" d="M40.2,15L40.2,15L40.2,15c0,0-0.1,0-0.4-0.1c-1.4-0.2-16.2-0.6-23.5,1.7c-0.9,0.3-1.8,0.6-2.7,0.9c0,0,0,0,0,0
		h16h0c-1.2,0.6-2.4,1.4-3.5,2.2h0H10.2c0,0,0,0,0,0c-0.9,0.6-1.8,1.3-2.6,2.1c0,0,0,0,0,0h16.1c0,0,0,0,0,0
		c-0.7,0.8-1.4,1.6-2.1,2.4c0,0,0,0,0,0H5.6c0,0,0,0,0,0c-0.5,0.7-1,1.3-1.5,2.1c0,0,0,0,0,0h16c0,0,0,0,0,0c-0.2,0.3-0.4,0.6-0.5,1
		c-0.2,0.4-0.4,0.8-0.6,1.2c0,0,0,0,0,0h-16c0,0,0,0,0,0c-0.3,0.7-0.6,1.4-0.9,2.1c0,0,0,0,0,0h16c0,0,0,0,0,0
		c-0.3,0.8-0.5,1.6-0.7,2.4c0,0,0,0,0,0H1.5c0,0,0,0,0,0c-0.2,0.7-0.3,1.4-0.4,2.1c0,0,0,0,0,0H17c0,0,0,0,0,0
		c-0.1,0.7-0.2,1.5-0.2,2.3c0,0,0,0,0,0H1c0,0,0,0,0,0v2.1c0,0,0,0,0,0h15.8c0,0,0,0,0,0V42c0,0,0,0,0,0H1c0,0,0,0,0,0v2.1
		c0,0,0,0,0,0h15.8c0,0,0,0,0,0v2.4c0,0,0,0,0,0H1c0,0,0,0,0,0v2.1c0,0,0,0,0,0h15.8c0,0,0,0,0,0v2.2c0,0,0,0,0,0H1c0,0,0,0,0,0V53
		c0,0,0,0,0,0h15.8c0,0,0,0,0,0v2.4c0,0,0,0,0,0H1c0,0,0,0,0,0v2.1c0,0,0,0,0,0h15.8c0,0,0,0,0,0v2.2c0,0,0,0,0,0h-0.4H1
		c0,0,0,0,0,0v2.1c0,0,0,0,0,0h11.3h4.5l0,0c0,0,2.7,0.3,6.2-1.8c4.6-2.9,5-7.2,5-7.3c0,0,0,0,0,0l0-0.1c0,0,0,0,0,0
		c0-0.4,0-0.8,0-1.2c0-1,0-1.9,0-2.9c0-1.2,0-2.3,0-3.5c0-1,0-2,0-3c0-1-0.1-2-0.1-2.9c0-1,0-2,0.2-3c0-0.1,0-0.2,0.1-0.3
		c0.3-1.3,0.8-2.6,1.6-3.8c0.7-1.2,1.6-2.2,2.6-3.1c1-0.9,2.2-1.6,3.5-2.1c1.3-0.5,2.7-0.8,4.1-0.9c0,0,0.2,0,0.2,0c0,0,0,0,0,0
		L40.2,15C40.2,15,40.2,15,40.2,15z"/>
	<path class="st2" d="M40.2,15L40.2,15L40.2,15c0,0-0.1,0-0.4-0.1c-1.4-0.2-16.2-0.6-23.5,1.7c-0.9,0.3-1.8,0.6-2.7,0.9c0,0,0,0,0,0
		h16h0c-1.2,0.6-2.4,1.4-3.5,2.2h0H10.2c0,0,0,0,0,0c-0.9,0.6-1.8,1.3-2.6,2.1c0,0,0,0,0,0h16.1c0,0,0,0,0,0
		c-0.7,0.8-1.4,1.6-2.1,2.4c0,0,0,0,0,0H5.6c0,0,0,0,0,0c-0.5,0.7-1,1.3-1.5,2.1c0,0,0,0,0,0h16c0,0,0,0,0,0c-0.2,0.3-0.4,0.6-0.5,1
		c-0.2,0.4-0.4,0.8-0.6,1.2c0,0,0,0,0,0h-16c0,0,0,0,0,0c-0.3,0.7-0.6,1.4-0.9,2.1c0,0,0,0,0,0h16c0,0,0,0,0,0
		c-0.3,0.8-0.5,1.6-0.7,2.4c0,0,0,0,0,0H1.5c0,0,0,0,0,0c-0.2,0.7-0.3,1.4-0.4,2.1c0,0,0,0,0,0H17c0,0,0,0,0,0
		c-0.1,0.7-0.2,1.5-0.2,2.3c0,0,0,0,0,0H1c0,0,0,0,0,0v2.1c0,0,0,0,0,0h15.8c0,0,0,0,0,0V42c0,0,0,0,0,0H1c0,0,0,0,0,0v2.1
		c0,0,0,0,0,0h15.8c0,0,0,0,0,0v2.4c0,0,0,0,0,0H1c0,0,0,0,0,0v2.1c0,0,0,0,0,0h15.8c0,0,0,0,0,0v2.2c0,0,0,0,0,0H1c0,0,0,0,0,0V53
		c0,0,0,0,0,0h15.8c0,0,0,0,0,0v2.4c0,0,0,0,0,0H1c0,0,0,0,0,0v2.1c0,0,0,0,0,0h15.8c0,0,0,0,0,0v2.2c0,0,0,0,0,0h-0.4H1
		c0,0,0,0,0,0v2.1c0,0,0,0,0,0h11.3h4.5l0,0c0,0,2.7,0.3,6.2-1.8c4.6-2.9,5-7.2,5-7.3c0,0,0,0,0,0l0-0.1c0,0,0,0,0,0
		c0-0.4,0-0.8,0-1.2c0-1,0-1.9,0-2.9c0-1.2,0-2.3,0-3.5c0-1,0-2,0-3c0-1-0.1-2-0.1-2.9c0-1,0-2,0.2-3c0-0.1,0-0.2,0.1-0.3
		c0.3-1.3,0.8-2.6,1.6-3.8c0.7-1.2,1.6-2.2,2.6-3.1c1-0.9,2.2-1.6,3.5-2.1c1.3-0.5,2.7-0.8,4.1-0.9c0,0,0.2,0,0.2,0c0,0,0,0,0,0
		L40.2,15C40.2,15,40.2,15,40.2,15z"/>
</g>
<text transform="matrix(1 0 0 1 71.0273 58.0654)" class="st0 st3 st4">INNOVATION WITH INSPIRATION</text>
</svg>
